<?xml version="1.0" encoding="UTF-8" standalone="no"?>
<!DOCTYPE svg PUBLIC "-//W3C//DTD SVG 1.1//EN" "http://www.w3.org/Graphics/SVG/1.1/DTD/svg11.dtd">
<svg width="60.00" height="60.00" viewBox="0.00 0.00 1000.00 1000.00" xmlns="http://www.w3.org/2000/svg" xmlns:xlink="http://www.w3.org/1999/xlink">
<g stroke-linecap="round" id="Logo_-_vector">
<path d="M481.45,241.41 Q481.46,239.42 481.47,237.40 Q475.37,202.36 443.03,188.18 Q319.20,184.73 208.19,186.24 Q207.54,186.25 207.54,186.25 Q170.67,187.01 160.10,227.96 Q159.06,383.43 160.17,427.42 Q160.19,428.25 160.19,428.25 Q149.89,458.55 123.22,442.79" fill="none" stroke="rgb(0, 0, 0)" stroke-width="24.22" stroke-opacity="1.00" stroke-linejoin="round"/>
<path d="M156.29,497.37 Q144.33,475.65 124.50,491.54 Q100.15,515.38 75.87,490.73 Q62.26,467.23 76.65,444.87 Q95.55,422.21 120.78,443.32" fill="none" stroke="rgb(0, 0, 0)" stroke-width="24.22" stroke-opacity="1.00" stroke-linejoin="round"/>
<path d="M505.09,240.64" fill="none" stroke="rgb(0, 0, 0)" stroke-width="24.22" stroke-opacity="1.00" stroke-linejoin="round"/>
<path d="M321.49,372.61 Q312.80,414.48 355.95,441.36 Q416.06,470.60 446.21,418.98" fill="none" stroke="rgb(0, 0, 0)" stroke-width="24.22" stroke-opacity="1.00" stroke-linejoin="round"/>
<path d="M451.31,342.06 Q450.35,341.56 449.39,340.98 Q426.51,297.69 379.98,307.44 Q332.61,316.28 321.90,370.01" fill="none" stroke="rgb(0, 0, 0)" stroke-width="24.22" stroke-opacity="1.00" stroke-linejoin="round"/>
<path d="M157.43,496.90 Q156.40,654.33 157.94,713.30 Q176.56,757.51 211.95,759.33 Q211.95,759.33 212.29,759.34 Q289.07,761.16 440.79,758.21 Q485.30,746.34 481.21,701.11 Q481.21,701.11 481.21,700.79 Q481.73,676.00 481.97,649.22" fill="none" stroke="rgb(0, 0, 0)" stroke-width="24.22" stroke-opacity="1.00" stroke-linejoin="round"/>
<path d="M439.57,650.66 Q324.98,651.64 198.15,646.97" fill="none" stroke="rgb(0, 0, 0)" stroke-width="24.22" stroke-opacity="1.00" stroke-linejoin="round"/>
<path d="M446.90,416.93" fill="none" stroke="rgb(0, 0, 0)" stroke-width="24.22" stroke-opacity="1.00" stroke-linejoin="round"/>
<path d="M452.68,345.04 Q458.85,351.18 465.01,357.31" fill="none" stroke="rgb(0, 0, 0)" stroke-width="24.22" stroke-opacity="1.00" stroke-linejoin="round"/>
<path d="M505.57,650.00 Q505.56,650.35 505.56,650.70" fill="none" stroke="rgb(0, 0, 0)" stroke-width="24.22" stroke-opacity="1.00" stroke-linejoin="round"/>
<path d="M481.77,649.48 Q487.46,655.60 493.15,661.71" fill="none" stroke="rgb(0, 0, 0)" stroke-width="24.22" stroke-opacity="1.00" stroke-linejoin="round"/>
<path d="M505.53,239.40 Q511.63,204.36 543.97,190.18 Q667.80,186.73 778.81,188.24 Q779.46,188.25 779.46,188.25 Q816.33,189.01 826.90,229.96 Q827.94,385.43 826.83,429.42 Q826.81,430.25 826.81,430.25 Q837.11,460.55 863.78,444.79" fill="none" stroke="rgb(0, 0, 0)" stroke-width="24.22" stroke-opacity="1.00" stroke-linejoin="round"/>
<path d="M830.71,499.37 Q842.67,477.65 862.50,493.54 Q886.85,517.38 911.13,492.73 Q924.74,469.23 910.35,446.87 Q891.45,424.21 866.22,445.32" fill="none" stroke="rgb(0, 0, 0)" stroke-width="24.22" stroke-opacity="1.00" stroke-linejoin="round"/>
<path d="M829.57,498.90 Q830.60,656.33 829.06,715.30 Q810.44,759.51 775.05,761.33 Q775.05,761.33 774.71,761.34 Q697.93,763.16 546.21,760.21 Q501.70,748.34 505.79,703.11 Q505.79,703.11 505.79,702.79 Q505.25,677.05 505.02,649.17" fill="none" stroke="rgb(0, 0, 0)" stroke-width="24.22" stroke-opacity="1.00" stroke-linejoin="round"/>
<path d="M671.33,686.24 C668.22,686.16 660.84,687.68 658.09,688.97 C655.36,690.30 649.85,694.93 648.20,697.29 C646.59,699.67 644.41,706.17 644.30,708.96 C644.23,711.75 645.98,718.38 647.44,720.86 C648.94,723.32 654.14,728.30 656.78,729.79 C659.44,731.26 666.70,733.25 669.81,733.37 C672.92,733.45 680.30,731.93 683.04,730.64 C685.77,729.31 691.28,724.68 692.93,722.32 C694.55,719.94 696.72,713.44 696.83,710.65 C696.90,707.86 695.15,701.23 693.69,698.75 C692.20,696.29 686.99,691.31 684.36,689.82 C681.70,688.35 674.43,686.36 671.33,686.24 Z" fill="none" stroke="rgb(0, 0, 0)" stroke-width="9.80" stroke-opacity="1.00" stroke-linejoin="round"/>
<path d="M547.43,652.66 Q662.02,653.64 788.85,648.97" fill="none" stroke="rgb(0, 0, 0)" stroke-width="24.22" stroke-opacity="1.00" stroke-linejoin="round"/>
<path d="M491.10,662.06 Q492.13,663.06 493.15,664.05" fill="none" stroke="rgb(0, 0, 0)" stroke-width="24.22" stroke-opacity="1.00" stroke-linejoin="round"/>
<path d="M505.22,649.68 Q505.22,650.59 505.23,651.48" fill="none" stroke="rgb(0, 0, 0)" stroke-width="24.22" stroke-opacity="1.00" stroke-linejoin="round"/>
<path d="M666.21,535.56 Q675.42,493.80 632.60,466.39 Q572.87,436.42 542.08,487.66" fill="none" stroke="rgb(0, 0, 0)" stroke-width="24.22" stroke-opacity="1.00" stroke-linejoin="round"/>
<path d="M522.67,558.68 Q524.21,560.16 525.75,561.64 Q527.32,561.74 528.88,561.84 Q533.36,562.77 537.93,565.61 Q560.27,609.18 606.92,600.00 Q654.39,591.75 665.77,538.16" fill="none" stroke="rgb(0, 0, 0)" stroke-width="24.22" stroke-opacity="1.00" stroke-linejoin="round"/>
<path d="M534.69,561.50 Q531.93,561.27 529.32,561.07 Q526.95,558.95 524.57,556.82" fill="none" stroke="rgb(0, 0, 0)" stroke-width="24.22" stroke-opacity="1.00" stroke-linejoin="round"/>
<path d="M518.38,560.50 Q518.56,560.47 518.73,560.43" fill="none" stroke="rgb(0, 0, 0)" stroke-width="24.22" stroke-opacity="1.00" stroke-linejoin="round"/>
<path d="M505.08,647.12 Q505.26,641.90 505.43,636.61" fill="none" stroke="rgb(0, 0, 0)" stroke-width="24.22" stroke-opacity="1.00" stroke-linejoin="round"/>
<path d="M481.27,645.45 Q481.30,642.27 481.34,639.13" fill="none" stroke="rgb(0, 0, 0)" stroke-width="24.22" stroke-opacity="1.00" stroke-linejoin="round"/>
<path d="M492.24,699.06 Q494.24,663.48 495.71,637.50" fill="none" stroke="rgb(0, 0, 0)" stroke-width="24.22" stroke-opacity="1.00" stroke-linejoin="round"/>
<path d="M491.89,269.20 Q491.89,266.80 491.89,264.33" fill="none" stroke="rgb(0, 0, 0)" stroke-width="24.22" stroke-opacity="1.00" stroke-linejoin="round"/>
<path d="M322.16,686.12 C325.37,685.80 332.60,687.48 335.52,689.46 C338.70,691.69 342.51,696.91 343.67,700.62 C344.67,704.01 344.07,711.40 342.79,714.36 C341.46,717.31 336.39,722.72 333.22,724.26 C329.69,725.90 323.27,726.59 319.47,725.74 C316.04,724.91 309.94,720.70 308.01,718.11 C306.13,715.49 303.97,708.39 304.22,704.87 C304.57,700.99 307.18,695.09 309.82,692.22 C312.25,689.67 318.95,686.49 322.16,686.12 Z" fill="none" stroke="rgb(0, 0, 0)" stroke-width="26.12" stroke-opacity="1.00" stroke-linejoin="round"/>
<path d="M671.95,691.66 C675.18,691.67 682.19,694.11 684.90,696.40 C687.84,698.99 691.10,704.65 691.89,708.52 C692.54,712.04 691.21,719.46 689.64,722.32 C688.02,725.16 682.44,730.12 679.13,731.36 C675.46,732.65 669.01,732.70 665.32,731.45 C661.99,730.26 656.34,725.38 654.69,722.56 C653.08,719.72 651.64,712.33 652.25,708.79 C652.98,704.91 656.16,699.21 659.07,696.58 C661.74,694.25 668.72,691.71 671.95,691.66 Z" fill="none" stroke="rgb(0, 0, 0)" stroke-width="26.12" stroke-opacity="1.00" stroke-linejoin="round"/>
<path d="M504.37,632.67 Q505.52,607.55 505.06,574.68" fill="none" stroke="rgb(0, 0, 0)" stroke-width="24.22" stroke-opacity="1.00" stroke-linejoin="round"/>
<path d="M525.75,561.64 Q508.76,565.31 491.76,568.99" fill="none" stroke="rgb(0, 0, 0)" stroke-width="24.22" stroke-opacity="1.00" stroke-linejoin="round"/>
<path d="M495.12,566.65 Q490.11,569.26 485.10,571.87" fill="none" stroke="rgb(0, 0, 0)" stroke-width="24.22" stroke-opacity="1.00" stroke-linejoin="round"/>
<path d="M487.68,570.97 Q485.79,572.28 483.89,573.58" fill="none" stroke="rgb(0, 0, 0)" stroke-width="24.22" stroke-opacity="1.00" stroke-linejoin="round"/>
<path d="M490.32,570.43 Q489.26,572.01 488.19,573.59 Q485.28,582.94 482.37,592.29 Q482.03,610.32 481.34,639.13" fill="none" stroke="rgb(0, 0, 0)" stroke-width="24.22" stroke-opacity="1.00" stroke-linejoin="round"/>
<path d="M494.21,567.75 Q494.30,622.00 493.73,624.03" fill="none" stroke="rgb(0, 0, 0)" stroke-width="24.22" stroke-opacity="1.00" stroke-linejoin="round"/>
<path d="M504.96,265.12 Q505.21,253.69 505.09,240.64" fill="none" stroke="rgb(0, 0, 0)" stroke-width="24.22" stroke-opacity="1.00" stroke-linejoin="round"/>
<path d="M540.38,488.05 Q535.99,486.48 531.59,484.91" fill="none" stroke="rgb(0, 0, 0)" stroke-width="24.22" stroke-opacity="1.00" stroke-linejoin="round"/>
<path d="M477.26,593.55 Q478.72,549.55 522.30,555.68" fill="none" stroke="rgb(0, 0, 0)" stroke-width="15.75" stroke-opacity="1.00" stroke-linejoin="round"/>
<path d="M533.30,486.75 Q537.33,488.23 541.36,489.70 Q476.85,506.15 488.37,417.55" fill="none" stroke="rgb(0, 0, 0)" stroke-width="27.43" stroke-opacity="1.00" stroke-linejoin="round"/>
<path d="M501.72,485.86 Q536.94,377.88 449.67,415.20" fill="none" stroke="rgb(0, 0, 0)" stroke-width="27.43" stroke-opacity="1.00" stroke-linejoin="round"/>
<path d="M455.47,346.57 Q516.16,359.01 504.96,265.12" fill="none" stroke="rgb(0, 0, 0)" stroke-width="27.43" stroke-opacity="1.00" stroke-linejoin="round"/>
<path d="M480.80,244.97 Q485.57,295.73 482.16,338.85" fill="none" stroke="rgb(0, 0, 0)" stroke-width="27.43" stroke-opacity="1.00" stroke-linejoin="round"/>
</g>
</svg>
